<svg xmlns="http://www.w3.org/2000/svg" xmlns:xlink="http://www.w3.org/1999/xlink" viewBox="0,0,256,256" width="50px" height="50px" fill-rule="nonzero"><g fill="#ffffff" fill-rule="nonzero" stroke="none" stroke-width="1" stroke-linecap="butt" stroke-linejoin="miter" stroke-miterlimit="10" stroke-dasharray="" stroke-dashoffset="0" font-family="none" font-weight="none" font-size="none" text-anchor="none" style="mix-blend-mode: normal"><g transform="scale(5.12,5.12)"><path d="M14.5293,4c-3.58333,0 -6.31907,1.05795 -8.07031,3.10938c-1.75124,2.05142 -2.45898,4.93929 -2.45898,8.41602v20c0,6.02048 4.40965,10.47461 10.5293,10.47461h9.4707v-42zM26,4v42h9.4707c6.11965,0 10.5293,-4.45413 10.5293,-10.47461v-20c0,-3.47673 -0.70774,-6.36459 -2.45898,-8.41602c-1.75124,-2.05142 -4.48698,-3.10937 -8.07031,-3.10937zM14.5293,6h7.4707v38h-7.4707c-5.19635,0 -8.5293,-3.38309 -8.5293,-8.47461v-20c0,-3.20327 0.66251,-5.57561 1.97852,-7.11719c1.31601,-1.54158 3.34512,-2.4082 6.55078,-2.4082zM28,6h7.4707c3.20566,0 5.23478,0.86662 6.55078,2.4082c1.31601,1.54158 1.97852,3.91391 1.97852,7.11719v20c0,5.09152 -3.33294,8.47461 -8.5293,8.47461h-7.4707zM14.5,10c-1.41667,0 -2.60644,0.56726 -3.37305,1.42969c-0.76661,0.86243 -1.12695,1.97309 -1.12695,3.07031c0,1.09722 0.36035,2.20788 1.12695,3.07031c0.76661,0.86243 1.95638,1.42969 3.37305,1.42969c1.41667,0 2.60644,-0.56726 3.37305,-1.42969c0.76661,-0.86243 1.12695,-1.97309 1.12695,-3.07031c0,-1.09722 -0.36035,-2.20788 -1.12695,-3.07031c-0.76661,-0.86243 -1.95638,-1.42969 -3.37305,-1.42969zM14.5,12c0.91667,0 1.47689,0.30774 1.87695,0.75781c0.40006,0.45007 0.62305,1.08941 0.62305,1.74219c0,0.65278 -0.22299,1.29212 -0.62305,1.74219c-0.40006,0.45007 -0.96029,0.75781 -1.87695,0.75781c-0.91667,0 -1.47689,-0.30774 -1.87695,-0.75781c-0.40006,-0.45007 -0.62305,-1.08941 -0.62305,-1.74219c0,-0.65278 0.22299,-1.29212 0.62305,-1.74219c0.40006,-0.45007 0.96029,-0.75781 1.87695,-0.75781zM35.5,24c-1.41667,0 -2.60644,0.56726 -3.37305,1.42969c-0.76661,0.86243 -1.12695,1.97309 -1.12695,3.07031c0,1.09722 0.36035,2.20788 1.12695,3.07031c0.76661,0.86243 1.95638,1.42969 3.37305,1.42969c1.41667,0 2.60644,-0.56726 3.37305,-1.42969c0.76661,-0.86243 1.12695,-1.97309 1.12695,-3.07031c0,-1.09722 -0.36035,-2.20788 -1.12695,-3.07031c-0.76661,-0.86243 -1.95638,-1.42969 -3.37305,-1.42969zM35.5,26c0.91667,0 1.47689,0.30774 1.87695,0.75781c0.40006,0.45007 0.62305,1.08941 0.62305,1.74219c0,0.65278 -0.22299,1.29212 -0.62305,1.74219c-0.40006,0.45007 -0.96029,0.75781 -1.87695,0.75781c-0.91667,0 -1.47689,-0.30774 -1.87695,-0.75781c-0.40006,-0.45007 -0.62305,-1.08941 -0.62305,-1.74219c0,-0.65278 0.22299,-1.29212 0.62305,-1.74219c0.40006,-0.45007 0.96029,-0.75781 1.87695,-0.75781z"></path></g></g></svg>