<svg xmlns="http://www.w3.org/2000/svg" xmlns:xlink="http://www.w3.org/1999/xlink" viewBox="0,0,256,256" width="60px" height="60px" fill-rule="nonzero"><g fill="#ffffff" fill-rule="nonzero" stroke="none" stroke-width="1" stroke-linecap="butt" stroke-linejoin="miter" stroke-miterlimit="10" stroke-dasharray="" stroke-dashoffset="0" font-family="none" font-weight="none" font-size="none" text-anchor="none" style="mix-blend-mode: normal"><g transform="scale(8,8)"><path d="M16,4c-6.61719,0 -12,5.38281 -12,12c0,6.61719 5.38281,12 12,12c6.61719,0 12,-5.38281 12,-12c0,-6.61719 -5.38281,-12 -12,-12zM16,6c0.09375,0 0.1875,0.02734 0.28125,0.03125c0.25391,0.00781 0.5,0.00781 0.75,0.03125c0.03125,0.00391 0.0625,-0.00391 0.09375,0c0.09375,0.01172 0.1875,0.01953 0.28125,0.03125c0.0625,0.00781 0.125,0.01953 0.1875,0.03125c0.38672,0.0625 0.75391,0.14453 1.125,0.25c0.39063,0.10938 0.78906,0.25 1.15625,0.40625c0.00781,0.00391 0.02344,-0.00391 0.03125,0c0.16406,0.07031 0.3125,0.17188 0.46875,0.25c0.20703,0.10156 0.42578,0.19531 0.625,0.3125c0.05469,0.03125 0.10547,0.0625 0.15625,0.09375c0.06641,0.02344 0.14844,0.07422 0.25,0.15625c0.00391,0.00391 -0.00391,0.02734 0,0.03125c-1.64844,-0.94922 -5.375,2.0625 -5.375,2.0625c-1.47656,-1.12891 -2.81641,-1.89453 -3.8125,-2.15625c-0.64844,-0.16406 -1.14062,-0.12891 -1.46875,0c0.16016,-0.10156 0.30078,-0.22266 0.46875,-0.3125c0.01172,-0.00781 0.01953,-0.02344 0.03125,-0.03125c0.25391,-0.14453 0.51563,-0.25781 0.78125,-0.375c0.01953,-0.00781 0.04297,-0.02344 0.0625,-0.03125c0.1875,-0.08203 0.37109,-0.15234 0.5625,-0.21875c0.17188,-0.0625 0.35547,-0.10547 0.53125,-0.15625c0.25781,-0.07422 0.51563,-0.16406 0.78125,-0.21875c0.08203,-0.01562 0.16797,-0.01562 0.25,-0.03125c0.21484,-0.03906 0.43359,-0.07031 0.65625,-0.09375c0.03125,-0.00391 0.0625,0.00391 0.09375,0c0.33594,-0.03516 0.68359,-0.0625 1.03125,-0.0625zM22,8.59375c0.29297,0 0.63672,0.0625 0.9375,0.25c0.03906,0.03516 0.08984,0.05859 0.125,0.09375c0.05469,0.04688 0.10547,0.09766 0.15625,0.15625c0.14063,0.14453 0.27734,0.28516 0.40625,0.4375c0.02734,0.03516 0.06641,0.05859 0.09375,0.09375c0.07813,0.09375 0.14453,0.18359 0.21875,0.28125c0.12109,0.16016 0.23047,0.33203 0.34375,0.5c0.17969,0.26563 0.34766,0.52734 0.5,0.8125c0.14453,0.26172 0.28906,0.53516 0.40625,0.8125c0.00781,0.01953 0.02344,0.04297 0.03125,0.0625c0.03125,0.07422 0.0625,0.14453 0.09375,0.21875c0.08984,0.23047 0.17578,0.48047 0.25,0.71875c0.09766,0.3125 0.18359,0.61328 0.25,0.9375c0.00781,0.04297 0.02344,0.08203 0.03125,0.125c0.11719,0.61328 0.15625,1.25781 0.15625,1.90625c0,2.42188 -0.85547,4.64844 -2.28125,6.375c-0.08203,0.09766 -0.16406,0.1875 -0.25,0.28125c0.47656,-2.51562 -0.39844,-4.37109 -1.8125,-6.6875c-1.47656,-2.34766 -3.8125,-4.65625 -3.8125,-4.65625c2.08203,-1.95703 3.80859,-2.58984 4.15625,-2.71875zM9.875,8.65625c0.65234,0.04297 1.32813,0.29688 1.9375,0.6875l0.0625,0.03125c1.30078,0.78125 2.34375,1.9375 2.34375,1.9375c-1.12891,1.08594 -3.83984,4.375 -4.75,6.59375c-1.34375,3.39063 -0.71875,4.875 -0.71875,4.875c0.17188,-1.87109 2.94141,-5.17578 3.9375,-6.21875c0.51953,-0.60937 1.53125,-1.59375 2.3125,-2.375c0.5625,-0.60937 1.03125,-1.09375 1.03125,-1.09375c0.30469,0.30469 0.61328,0.61328 0.875,0.875c1.25781,1.26172 2.19531,2.26172 2.84375,3c0.65234,0.73828 1.78906,2.12891 2.09375,2.5625c1.30469,1.85547 1.55078,3.11328 1.5625,3.1875c-0.10937,0.12109 -0.22656,0.22656 -0.34375,0.34375c-0.22656,0.22656 -0.44141,0.45313 -0.6875,0.65625c-0.24609,0.20313 -0.51562,0.38281 -0.78125,0.5625c-0.26562,0.17969 -0.52734,0.34766 -0.8125,0.5c-0.21875,0.11719 -0.42969,0.24219 -0.65625,0.34375c-0.04297,0.01953 -0.08203,0.04297 -0.125,0.0625c-0.27344,0.11719 -0.55859,0.21875 -0.84375,0.3125c-0.02344,0.00781 -0.03906,0.02344 -0.0625,0.03125c-0.25781,0.08203 -0.51562,0.15625 -0.78125,0.21875c-0.09375,0.02344 -0.18359,0.04297 -0.28125,0.0625c-0.19141,0.03906 -0.39844,0.03516 -0.59375,0.0625c-0.45703,0.06641 -0.92969,0.125 -1.40625,0.125c-0.35547,0 -0.71875,-0.02734 -1.0625,-0.0625c-0.66016,-0.07031 -1.29297,-0.18359 -1.90625,-0.375c-0.00781,-0.00391 -0.02344,0.00391 -0.03125,0c-0.92578,-0.29297 -1.80469,-0.74609 -2.59375,-1.28125c-0.00781,-0.00391 -0.02344,0.00391 -0.03125,0c-0.52344,-0.35547 -0.99219,-0.77344 -1.4375,-1.21875c-1.80469,-1.80859 -2.90625,-4.30078 -2.90625,-7.0625c0,-2.65234 1.03906,-5.03125 2.6875,-6.8125c0,0 0.42969,-0.53125 1.125,-0.53125z"></path></g></g></svg>